<?xml version="1.0" standalone="no"?>
<!DOCTYPE svg PUBLIC "-//W3C//DTD SVG 20010904//EN"
 "http://www.w3.org/TR/2001/REC-SVG-20010904/DTD/svg10.dtd">
<svg version="1.0" xmlns="http://www.w3.org/2000/svg"
 width="288.000000pt" height="55.000000pt" viewBox="0 0 288.000000 55.000000"
 preserveAspectRatio="xMidYMid meet">

<g transform="translate(0.000000,55.000000) scale(0.100000,-0.100000)"
fill="#000000" stroke="none">
<path d="M406 438 c-34 -49 -20 -76 72 -138 57 -38 77 -73 66 -114 -13 -55
-88 -74 -137 -36 -35 28 -45 25 -17 -5 19 -20 33 -25 72 -25 64 0 98 31 98 87
0 47 -18 74 -67 104 -21 12 -48 31 -60 42 -25 22 -30 66 -11 85 15 15 64 16
73 2 3 -5 11 -10 17 -10 7 0 6 6 -2 15 -20 24 -86 19 -104 -7z"/>
<path d="M618 454 c-12 -11 -10 -322 2 -329 6 -4 10 18 10 59 l0 66 115 0 115
0 0 -66 c0 -41 4 -63 10 -59 6 4 10 70 10 165 0 95 -4 161 -10 165 -6 4 -10
-30 -10 -94 l0 -101 -115 0 -114 0 -3 101 c-2 55 -6 97 -10 93z"/>
<path d="M1020 439 c-80 -46 -110 -142 -70 -223 30 -62 70 -89 141 -94 101 -7
175 53 186 152 16 134 -140 233 -257 165z m163 -12 c56 -34 77 -72 77 -137 0
-42 -6 -64 -24 -91 -62 -92 -201 -91 -263 1 -30 43 -32 132 -3 174 47 72 142
96 213 53z"/>
<path d="M1337 453 c-11 -11 -8 -321 3 -328 6 -4 10 17 10 55 0 49 3 62 18 66
59 19 92 56 92 104 0 61 -90 136 -123 103z m78 -38 c36 -35 35 -97 -1 -130
-15 -14 -35 -25 -45 -25 -17 0 -19 9 -19 90 0 84 1 90 20 90 12 0 32 -11 45
-25z"/>
<path d="M1569 437 c-102 -69 -108 -211 -11 -285 44 -33 145 -43 177 -17 20
16 19 16 -5 8 -49 -16 -127 -9 -156 13 -53 39 -69 71 -69 134 0 66 18 99 76
138 27 19 44 23 84 20 28 -3 59 -8 70 -12 20 -8 20 -7 1 8 -31 25 -125 21
-167 -7z"/>
<path d="M1883 435 c-83 -50 -106 -160 -50 -244 35 -52 85 -74 156 -69 71 5
111 32 141 94 75 153 -99 307 -247 219z m166 -6 c54 -30 74 -64 79 -131 4 -50
1 -64 -21 -97 -62 -93 -201 -94 -264 -1 -31 45 -32 129 -2 177 42 68 138 92
208 52z"/>
<path d="M2207 453 c-11 -11 -8 -321 3 -328 6 -4 10 48 11 147 l0 153 79 -155
78 -155 75 155 75 155 1 -147 c1 -86 5 -149 11 -153 7 -4 10 53 10 164 0 115
-4 171 -11 171 -6 0 -45 -71 -86 -157 l-76 -158 -75 158 c-41 86 -78 157 -82
157 -4 0 -10 -3 -13 -7z"/>
<path d="M1426 143 c-11 -11 -6 -23 9 -23 8 0 15 4 15 9 0 13 -16 22 -24 14z"/>
</g>
</svg>
